<?xml version="1.0" standalone="no"?><!DOCTYPE svg PUBLIC "-//W3C//DTD SVG 1.1//EN" "http://www.w3.org/Graphics/SVG/1.1/DTD/svg11.dtd"><svg t="1621347953647" class="icon" viewBox="0 0 1821 1024" version="1.1" xmlns="http://www.w3.org/2000/svg" p-id="4806" xmlns:xlink="http://www.w3.org/1999/xlink" width="355.6640625" height="200"><defs><style type="text/css"></style></defs><path d="M704.933333 556.933333v105.466667l191.466667 99.866667L1088 662.4v-105.466667l-191.466667 99.866667-191.6-99.866667z m191.6-268.133333L595.066667 446.4 896.533333 604l246.533334-128.8v181.6h54.933333V446.4L896.533333 288.8z" fill="#8a8a8a" p-id="4807"></path><path d="M1221.866667 900l-23.333334-25.6C1290.666667 790.133333 1344 670.133333 1344 544.666667c0-247.066667-200.933333-448-448-448-246.533333 0-447.466667 200.933333-447.466667 448 0 125.466667 51.066667 242 143.733334 328.666666l-23.866667 25.6c-99.866667-93.2-154.933333-218.666667-154.933333-354.133333 0-265.866667 216-482.4 481.866666-482.4s482.4 216.533333 482.4 482.4c0.666667 134.8-56.533333 264.666667-155.866666 355.2z" fill="#8a8a8a" p-id="4808"></path></svg>